<svg width="280" height="130" viewBox="0 0 280 130" fill="none" xmlns="http://www.w3.org/2000/svg">
<path d="M58.8587 63.016C65.9147 63.16 70.9907 63.916 74.0867 65.284C77.2547 66.652 78.8387 69.28 78.8387 73.168C78.8387 76.984 77.2187 79.576 73.9787 80.944C70.8107 82.24 65.8427 82.96 59.0747 83.104L59.1827 91.636C59.2547 93.004 59.2907 94.912 59.2907 97.36C59.2907 100.456 58.4267 102.652 56.6987 103.948C54.9707 105.172 52.9547 105.784 50.6507 105.784C46.6907 105.784 43.8107 103.804 42.0107 99.844C40.2107 95.884 39.0947 90.232 38.6627 82.888C33.9827 82.528 30.4907 81.628 28.1867 80.188C25.9547 78.748 24.8387 76.408 24.8387 73.168C24.8387 69.928 25.9547 67.588 28.1867 66.148C30.4907 64.636 33.9827 63.664 38.6627 63.232C39.0947 56.248 40.1387 50.38 41.7947 45.628C43.4507 40.876 46.1507 37.168 49.8947 34.504C53.6387 31.768 58.6787 30.4 65.0147 30.4C68.9747 30.4 72.2507 31.336 74.8427 33.208C77.5067 35.008 78.8387 37.636 78.8387 41.092C78.8387 44.692 77.7227 47.428 75.4907 49.3C73.3307 51.1 70.3427 52.36 66.5267 53.08C64.0067 53.584 62.1707 54.7 61.0187 56.428C59.8667 58.084 59.1467 60.28 58.8587 63.016ZM99.8607 106C94.2447 106 89.6367 104.74 86.0367 102.22C82.4367 99.628 80.6367 95.92 80.6367 91.096C80.6367 86.92 82.4727 83.608 86.1447 81.16C89.8167 78.712 94.3887 77.488 99.8607 77.488C101.877 77.488 103.749 77.668 105.477 78.028C107.277 78.316 108.501 78.676 109.149 79.108C109.149 77.308 108.393 75.832 106.881 74.68C105.369 73.456 103.065 72.844 99.9687 72.844C98.6007 72.844 97.4847 72.952 96.6207 73.168C95.7567 73.384 94.8207 73.708 93.8127 74.14C92.8047 74.572 91.8687 74.896 91.0047 75.112C90.2127 75.328 89.1327 75.436 87.7647 75.436C85.4607 75.436 83.6607 74.86 82.3647 73.708C81.0687 72.484 80.4207 70.648 80.4207 68.2C80.4207 65.392 81.4287 63.016 83.4447 61.072C85.5327 59.128 88.1247 57.688 91.2207 56.752C94.3167 55.744 97.4127 55.24 100.509 55.24C106.629 55.24 111.741 56.392 115.845 58.696C120.021 60.928 123.081 63.916 125.025 67.66C127.041 71.404 128.049 75.544 128.049 80.08C128.049 82.528 127.833 84.796 127.401 86.884C127.041 88.972 126.537 90.592 125.889 91.744C126.897 92.608 127.653 93.616 128.157 94.768C128.733 95.92 129.021 97.108 129.021 98.332C129.021 100.42 128.301 102.22 126.861 103.732C125.493 105.244 123.657 106 121.353 106C119.625 106 118.221 105.748 117.141 105.244C116.061 104.74 114.909 103.948 113.685 102.868C111.885 103.948 109.905 104.74 107.745 105.244C105.657 105.748 103.029 106 99.8607 106ZM102.021 95.092C103.533 95.092 104.721 94.768 105.585 94.12C106.521 93.472 106.989 92.68 106.989 91.744C106.989 90.808 106.521 90.016 105.585 89.368C104.721 88.72 103.533 88.396 102.021 88.396C100.509 88.396 99.2847 88.72 98.3487 89.368C97.4847 90.016 97.0527 90.808 97.0527 91.744C97.0527 92.68 97.4847 93.472 98.3487 94.12C99.2847 94.768 100.509 95.092 102.021 95.092ZM232.615 106C227.287 106 222.571 104.956 218.467 102.868C214.363 100.78 211.159 97.864 208.855 94.12C206.623 90.304 205.507 86.02 205.507 81.268C205.507 76.588 206.623 72.268 208.855 68.308C211.159 64.348 214.327 61.18 218.359 58.804C222.391 56.428 226.963 55.24 232.075 55.24C236.683 55.24 240.751 56.176 244.279 58.048C247.807 59.92 250.507 62.404 252.379 65.5C254.251 68.524 255.187 71.692 255.187 75.004C255.187 80.404 253.135 84.364 249.031 86.884C244.999 89.332 240.175 90.556 234.559 90.556C230.815 90.556 227.647 90.088 225.055 89.152C227.215 92.68 230.779 94.444 235.747 94.444C237.763 94.444 239.923 94.192 242.227 93.688C243.091 93.472 243.919 93.364 244.711 93.364C246.295 93.364 247.555 93.76 248.491 94.552C249.499 95.344 250.003 96.424 250.003 97.792C250.003 100.024 248.635 101.968 245.899 103.624C243.163 105.208 238.735 106 232.615 106ZM225.379 75.976C226.027 76.984 226.891 77.74 227.971 78.244C229.123 78.676 230.383 78.892 231.751 78.892C233.335 78.892 234.703 78.532 235.855 77.812C237.079 77.092 237.691 76.156 237.691 75.004C237.691 73.708 237.151 72.592 236.071 71.656C235.063 70.72 233.587 70.252 231.643 70.252C229.699 70.252 228.151 70.864 226.999 72.088C225.919 73.24 225.379 74.536 225.379 75.976Z" fill="url(#paint0_linear_104_9)"/>
<path d="M200.085 60.964C200.085 66.22 199.293 70.864 197.709 74.896C196.197 78.928 194.037 82.312 191.229 85.048C193.605 88.72 194.793 92.284 194.793 95.74C194.793 98.692 193.641 101.14 191.337 103.084C189.105 105.028 186.549 106 183.669 106C182.013 106 180.501 105.748 179.133 105.244C177.765 104.74 176.289 103.876 174.705 102.652C173.337 101.572 172.041 100.096 170.817 98.224C169.593 96.352 168.621 94.408 167.901 92.392C165.525 92.104 163.149 91.492 160.773 90.556C161.205 92.86 161.421 94.624 161.421 95.848C161.421 102.688 157.857 106.108 150.729 106.108C144.753 106.108 140.541 102.616 138.093 95.632C135.645 88.648 134.421 80.116 134.421 70.036C134.421 63.196 135.645 56.788 138.093 50.812C140.613 44.764 144.429 39.904 149.541 36.232C154.653 32.488 160.881 30.616 168.225 30.616C174.129 30.616 179.493 31.876 184.317 34.396C189.141 36.844 192.957 40.372 195.765 44.98C198.645 49.588 200.085 54.916 200.085 60.964ZM159.693 66.04C159.693 68.488 160.665 70.648 162.609 72.52C164.553 74.32 166.785 75.22 169.305 75.22C171.897 75.22 174.129 74.32 176.001 72.52C177.945 70.648 178.917 68.488 178.917 66.04C178.917 63.52 177.945 61.36 176.001 59.56C174.129 57.688 171.897 56.752 169.305 56.752C166.785 56.752 164.553 57.688 162.609 59.56C160.665 61.432 159.693 63.592 159.693 66.04Z" fill="url(#paint1_linear_104_9)"/>
<defs>
<linearGradient id="paint0_linear_104_9" x1="140" y1="0" x2="140" y2="130" gradientUnits="userSpaceOnUse">
<stop stop-color="#181818"/>
</linearGradient>
<linearGradient id="paint1_linear_104_9" x1="140" y1="0" x2="140" y2="130" gradientUnits="userSpaceOnUse">
<stop offset="0.254321" stop-color="#3BD0FF"/>
<stop offset="1" stop-color="#4260DA"/>
</linearGradient>
</defs>
</svg>
