<svg width="61" height="23" viewBox="0 0 61 23" fill="none" xmlns="http://www.w3.org/2000/svg">
<rect width="61" height="22.1538" fill="#F2F2F7"/>
<rect x="3" y="1.84615" width="20" height="18.4615" rx="2" fill="#0CA678"/>
<path d="M8.77637 22V6H19.6982V9.14062H12.6436V12.4219H19.0029V15.5703H12.6436V22H8.77637Z" fill="#F2F2F7"/>
<path d="M28.7021 20.6647C27.9365 20.6647 27.2568 20.5371 26.6631 20.2819C26.0745 20.0214 25.6084 19.6308 25.2646 19.11C24.9261 18.5839 24.7568 17.9251 24.7568 17.1334C24.7568 16.4667 24.874 15.9042 25.1084 15.4459C25.3428 14.9876 25.6657 14.6152 26.0771 14.3287C26.4886 14.0423 26.9626 13.8261 27.499 13.6803C28.0355 13.5292 28.6084 13.4277 29.2178 13.3756C29.9001 13.3131 30.4495 13.248 30.8662 13.1803C31.2829 13.1074 31.585 13.0058 31.7725 12.8756C31.9652 12.7402 32.0615 12.5501 32.0615 12.3053V12.2662C32.0615 11.8652 31.9235 11.5553 31.6475 11.3365C31.3714 11.1178 30.999 11.0084 30.5303 11.0084C30.0251 11.0084 29.6188 11.1178 29.3115 11.3365C29.0042 11.5553 28.8089 11.8574 28.7256 12.2428L25.2021 12.1178C25.3063 11.3886 25.5745 10.7376 26.0068 10.1647C26.4443 9.58654 27.0433 9.13342 27.8037 8.80529C28.5693 8.47196 29.4886 8.30529 30.5615 8.30529C31.3271 8.30529 32.0329 8.39644 32.6787 8.57873C33.3245 8.75581 33.887 9.01623 34.3662 9.35998C34.8454 9.69852 35.2152 10.1152 35.4756 10.61C35.7412 11.1048 35.874 11.6699 35.874 12.3053V20.4615H32.2803V18.7897H32.1865C31.973 19.1959 31.6995 19.5397 31.3662 19.8209C31.0381 20.1022 30.6501 20.3131 30.2021 20.4537C29.7594 20.5944 29.2594 20.6647 28.7021 20.6647ZM29.8818 18.1647C30.2933 18.1647 30.6631 18.0813 30.9912 17.9147C31.3245 17.748 31.5902 17.5188 31.7881 17.2272C31.986 16.9303 32.085 16.5865 32.085 16.1959V15.0553C31.9756 15.1126 31.8428 15.1647 31.6865 15.2115C31.5355 15.2584 31.3688 15.3027 31.1865 15.3444C31.0042 15.386 30.8167 15.4225 30.624 15.4537C30.4313 15.485 30.2464 15.5136 30.0693 15.5397C29.71 15.597 29.4027 15.6855 29.1475 15.8053C28.8975 15.9251 28.7048 16.0813 28.5693 16.274C28.4391 16.4615 28.374 16.6855 28.374 16.9459C28.374 17.3417 28.5146 17.6438 28.7959 17.8522C29.0824 18.0605 29.4443 18.1647 29.8818 18.1647ZM38.21 20.4615V8.46154H41.9209V10.649H42.0459C42.2646 9.85737 42.6214 9.26883 43.1162 8.88341C43.611 8.49279 44.1865 8.29748 44.8428 8.29748C45.0199 8.29748 45.2021 8.3105 45.3896 8.33654C45.5771 8.35737 45.7516 8.39123 45.9131 8.4381V11.7584C45.7308 11.6959 45.4912 11.6464 45.1943 11.61C44.9027 11.5735 44.6423 11.5553 44.4131 11.5553C43.96 11.5553 43.5511 11.6569 43.1865 11.86C42.8271 12.0579 42.5433 12.3365 42.335 12.6959C42.1318 13.0501 42.0303 13.4667 42.0303 13.9459V20.4615H38.21ZM52.4561 20.6881C51.2008 20.6881 50.1175 20.4407 49.2061 19.9459C48.2998 19.4459 47.6019 18.735 47.1123 17.8131C46.6279 16.886 46.3857 15.7845 46.3857 14.5084C46.3857 13.2688 46.6305 12.1855 47.1201 11.2584C47.6097 10.3261 48.2998 9.60216 49.1904 9.08654C50.0811 8.56571 51.1305 8.30529 52.3389 8.30529C53.193 8.30529 53.9743 8.4381 54.6826 8.70373C55.391 8.96935 56.0029 9.36258 56.5186 9.88341C57.0342 10.4042 57.4352 11.0475 57.7217 11.8131C58.0081 12.5735 58.1514 13.4459 58.1514 14.4303V15.3834H47.7217V13.1647H54.5967C54.5915 12.7584 54.4951 12.3964 54.3076 12.0787C54.1201 11.761 53.8623 11.5136 53.5342 11.3365C53.2113 11.1542 52.8389 11.0631 52.417 11.0631C51.9899 11.0631 51.6071 11.1595 51.2686 11.3522C50.93 11.5397 50.6618 11.7975 50.4639 12.1256C50.266 12.4485 50.1618 12.8157 50.1514 13.2272V15.485C50.1514 15.9746 50.2477 16.4042 50.4404 16.774C50.6331 17.1386 50.9066 17.4225 51.2607 17.6256C51.6149 17.8287 52.0368 17.9303 52.5264 17.9303C52.8649 17.9303 53.1722 17.8834 53.4482 17.7897C53.7243 17.6959 53.9613 17.5579 54.1592 17.3756C54.3571 17.1933 54.5055 16.9694 54.6045 16.7037L58.1123 16.8053C57.9665 17.5917 57.6462 18.2766 57.1514 18.86C56.6618 19.4381 56.0186 19.8886 55.2217 20.2115C54.4248 20.5292 53.5029 20.6881 52.4561 20.6881Z" fill="#121212"/>
</svg>
