<svg width="232" height="77" viewBox="0 0 232 77" fill="none" xmlns="http://www.w3.org/2000/svg">
<path d="M34.8587 33.016C41.9147 33.16 46.9907 33.916 50.0867 35.284C53.2547 36.652 54.8387 39.28 54.8387 43.168C54.8387 46.984 53.2187 49.576 49.9787 50.944C46.8107 52.24 41.8427 52.96 35.0747 53.104L35.1827 61.636C35.2547 63.004 35.2907 64.912 35.2907 67.36C35.2907 70.456 34.4267 72.652 32.6987 73.948C30.9707 75.172 28.9547 75.784 26.6507 75.784C22.6907 75.784 19.8107 73.804 18.0107 69.844C16.2107 65.884 15.0947 60.232 14.6627 52.888C9.98267 52.528 6.49067 51.628 4.18667 50.188C1.95467 48.748 0.838672 46.408 0.838672 43.168C0.838672 39.928 1.95467 37.588 4.18667 36.148C6.49067 34.636 9.98267 33.664 14.6627 33.232C15.0947 26.248 16.1387 20.38 17.7947 15.628C19.4507 10.876 22.1507 7.168 25.8947 4.50399C29.6387 1.76799 34.6787 0.399995 41.0147 0.399995C44.9747 0.399995 48.2507 1.336 50.8427 3.208C53.5067 5.008 54.8387 7.636 54.8387 11.092C54.8387 14.692 53.7227 17.428 51.4907 19.3C49.3307 21.1 46.3427 22.36 42.5267 23.08C40.0067 23.584 38.1707 24.7 37.0187 26.428C35.8667 28.084 35.1467 30.28 34.8587 33.016ZM75.8607 76C70.2447 76 65.6367 74.74 62.0367 72.22C58.4367 69.628 56.6367 65.92 56.6367 61.096C56.6367 56.92 58.4727 53.608 62.1447 51.16C65.8167 48.712 70.3887 47.488 75.8607 47.488C77.8767 47.488 79.7487 47.668 81.4767 48.028C83.2767 48.316 84.5007 48.676 85.1487 49.108C85.1487 47.308 84.3927 45.832 82.8807 44.68C81.3687 43.456 79.0647 42.844 75.9687 42.844C74.6007 42.844 73.4847 42.952 72.6207 43.168C71.7567 43.384 70.8207 43.708 69.8127 44.14C68.8047 44.572 67.8687 44.896 67.0047 45.112C66.2127 45.328 65.1327 45.436 63.7647 45.436C61.4607 45.436 59.6607 44.86 58.3647 43.708C57.0687 42.484 56.4207 40.648 56.4207 38.2C56.4207 35.392 57.4287 33.016 59.4447 31.072C61.5327 29.128 64.1247 27.688 67.2207 26.752C70.3167 25.744 73.4127 25.24 76.5087 25.24C82.6287 25.24 87.7407 26.392 91.8447 28.696C96.0207 30.928 99.0807 33.916 101.025 37.66C103.041 41.404 104.049 45.544 104.049 50.08C104.049 52.528 103.833 54.796 103.401 56.884C103.041 58.972 102.537 60.592 101.889 61.744C102.897 62.608 103.653 63.616 104.157 64.768C104.733 65.92 105.021 67.108 105.021 68.332C105.021 70.42 104.301 72.22 102.861 73.732C101.493 75.244 99.6567 76 97.3527 76C95.6247 76 94.2207 75.748 93.1407 75.244C92.0607 74.74 90.9087 73.948 89.6847 72.868C87.8847 73.948 85.9047 74.74 83.7447 75.244C81.6567 75.748 79.0287 76 75.8607 76ZM78.0207 65.092C79.5327 65.092 80.7207 64.768 81.5847 64.12C82.5207 63.472 82.9887 62.68 82.9887 61.744C82.9887 60.808 82.5207 60.016 81.5847 59.368C80.7207 58.72 79.5327 58.396 78.0207 58.396C76.5087 58.396 75.2847 58.72 74.3487 59.368C73.4847 60.016 73.0527 60.808 73.0527 61.744C73.0527 62.68 73.4847 63.472 74.3487 64.12C75.2847 64.768 76.5087 65.092 78.0207 65.092ZM208.615 76C203.287 76 198.571 74.956 194.467 72.868C190.363 70.78 187.159 67.864 184.855 64.12C182.623 60.304 181.507 56.02 181.507 51.268C181.507 46.588 182.623 42.268 184.855 38.308C187.159 34.348 190.327 31.18 194.359 28.804C198.391 26.428 202.963 25.24 208.075 25.24C212.683 25.24 216.751 26.176 220.279 28.048C223.807 29.92 226.507 32.404 228.379 35.5C230.251 38.524 231.187 41.692 231.187 45.004C231.187 50.404 229.135 54.364 225.031 56.884C220.999 59.332 216.175 60.556 210.559 60.556C206.815 60.556 203.647 60.088 201.055 59.152C203.215 62.68 206.779 64.444 211.747 64.444C213.763 64.444 215.923 64.192 218.227 63.688C219.091 63.472 219.919 63.364 220.711 63.364C222.295 63.364 223.555 63.76 224.491 64.552C225.499 65.344 226.003 66.424 226.003 67.792C226.003 70.024 224.635 71.968 221.899 73.624C219.163 75.208 214.735 76 208.615 76ZM201.379 45.976C202.027 46.984 202.891 47.74 203.971 48.244C205.123 48.676 206.383 48.892 207.751 48.892C209.335 48.892 210.703 48.532 211.855 47.812C213.079 47.092 213.691 46.156 213.691 45.004C213.691 43.708 213.151 42.592 212.071 41.656C211.063 40.72 209.587 40.252 207.643 40.252C205.699 40.252 204.151 40.864 202.999 42.088C201.919 43.24 201.379 44.536 201.379 45.976Z" fill="url(#paint0_linear_102_4)"/>
<path d="M176.085 30.964C176.085 36.22 175.293 40.864 173.709 44.896C172.197 48.928 170.037 52.312 167.229 55.048C169.605 58.72 170.793 62.284 170.793 65.74C170.793 68.692 169.641 71.14 167.337 73.084C165.105 75.028 162.549 76 159.669 76C158.013 76 156.501 75.748 155.133 75.244C153.765 74.74 152.289 73.876 150.705 72.652C149.337 71.572 148.041 70.096 146.817 68.224C145.593 66.352 144.621 64.408 143.901 62.392C141.525 62.104 139.149 61.492 136.773 60.556C137.205 62.86 137.421 64.624 137.421 65.848C137.421 72.688 133.857 76.108 126.729 76.108C120.753 76.108 116.541 72.616 114.093 65.632C111.645 58.648 110.421 50.116 110.421 40.036C110.421 33.196 111.645 26.788 114.093 20.812C116.613 14.764 120.429 9.904 125.541 6.232C130.653 2.488 136.881 0.615999 144.225 0.615999C150.129 0.615999 155.493 1.876 160.317 4.39599C165.141 6.844 168.957 10.372 171.765 14.98C174.645 19.588 176.085 24.916 176.085 30.964ZM135.693 36.04C135.693 38.488 136.665 40.648 138.609 42.52C140.553 44.32 142.785 45.22 145.305 45.22C147.897 45.22 150.129 44.32 152.001 42.52C153.945 40.648 154.917 38.488 154.917 36.04C154.917 33.52 153.945 31.36 152.001 29.56C150.129 27.688 147.897 26.752 145.305 26.752C142.785 26.752 140.553 27.688 138.609 29.56C136.665 31.432 135.693 33.592 135.693 36.04Z" fill="url(#paint1_linear_102_4)"/>
<defs>
<linearGradient id="paint0_linear_102_4" x1="116" y1="-30" x2="116" y2="100" gradientUnits="userSpaceOnUse">
<stop stop-color="#181818"/>
</linearGradient>
<linearGradient id="paint1_linear_102_4" x1="116" y1="-30" x2="116" y2="100" gradientUnits="userSpaceOnUse">
<stop offset="0.254321" stop-color="#14FFB9"/>
<stop offset="1" stop-color="#3461FF"/>
</linearGradient>
</defs>
</svg>
